<svg width="116" height="31" viewBox="0 0 116 31" fill="none" xmlns="http://www.w3.org/2000/svg">
<path d="M6.4 24.5L0.256 7.764H6.368L9.856 18.548L13.28 7.764H18.752L12.64 24.5H6.4ZM20.8248 24.5V7.764H26.5528V24.5H20.8248ZM23.6727 6.164C21.8808 6.164 20.5368 4.916 20.5368 3.22C20.5368 1.524 21.8808 0.243999 23.6727 0.243999C25.4648 0.243999 26.8408 1.524 26.8408 3.22C26.8408 4.916 25.4648 6.164 23.6727 6.164ZM36.7583 24.884C32.9823 24.884 30.8703 23.06 30.8703 19.124V11.668H28.8543V7.764H30.8703V4.276H36.5983V7.764H39.8943V11.668H36.5983V18.58C36.5983 19.796 37.2063 20.34 38.2943 20.34C38.9343 20.34 39.4143 20.244 39.9263 20.052V24.404C39.1903 24.596 38.1023 24.884 36.7583 24.884ZM47.2438 24.884C44.2358 24.884 41.5798 23.412 41.5798 19.86C41.5798 15.924 44.9078 14.388 50.4758 14.388H52.0758V14.004C52.0758 12.404 51.6918 11.348 49.8678 11.348C48.2998 11.348 47.7238 12.276 47.5958 13.332H42.2198C42.4758 9.3 45.6438 7.316 50.2198 7.316C54.8278 7.316 57.7718 9.204 57.7718 13.652V24.5H52.2038V22.548C51.4038 23.764 49.9318 24.884 47.2438 24.884ZM49.2278 21.012C50.8598 21.012 52.0758 20.084 52.0758 18.644V17.62H50.5718C48.2678 17.62 47.2438 18.068 47.2438 19.444C47.2438 20.404 47.8838 21.012 49.2278 21.012ZM61.1998 24.5V0.403999H66.8958V24.5H61.1998ZM70.606 24.5V7.764H76.334V24.5H70.606ZM73.454 6.164C71.662 6.164 70.318 4.916 70.318 3.22C70.318 1.524 71.662 0.243999 73.454 0.243999C75.246 0.243999 76.622 1.524 76.622 3.22C76.622 4.916 75.246 6.164 73.454 6.164ZM86.5395 24.884C82.7635 24.884 80.6515 23.06 80.6515 19.124V11.668H78.6355V7.764H80.6515V4.276H86.3795V7.764H89.6755V11.668H86.3795V18.58C86.3795 19.796 86.9875 20.34 88.0755 20.34C88.7155 20.34 89.1955 20.244 89.7075 20.052V24.404C88.9715 24.596 87.8835 24.884 86.5395 24.884ZM94.785 30.1L97.569 22.804L90.881 7.764H97.089L100.545 16.692L103.745 7.764H109.217L100.257 30.1H94.785ZM111.799 24.852C109.911 24.852 108.535 23.412 108.535 21.62C108.535 19.828 109.911 18.388 111.799 18.388C113.719 18.388 115.159 19.828 115.159 21.62C115.159 23.412 113.719 24.852 111.799 24.852Z" fill="black"/>
</svg>
